PathFileType	4	(X/Y/Z)	C:\Users\WrightLab\Desktop\Jo\P1.2Trial27.trc
DataRate	CameraRate	NumFrames	NumMarkers	Units	OrigDataRate	OrigDataStartFrame	OrigNumFrames
100.00	100.00	       51	19	mm	100.00	119	       946
Frame#	Time	Headset_Front			Headset_Back			Headset_Left			Headset_Right			Left_Shoulder			Right_Shoulder			Sternum			C7			Left Elbow			Right Elbow			Left Wrist			Right Wrist			Left ASIS			Right ASIS			S2			Left Knee			Right Knee			Left Ankle			Right Ankle			
		X1	Y1	Z1	X2	Y2	Z2	X3	Y3	Z3	X4	Y4	Z4	X5	Y5	Z5	X6	Y6	Z6	X7	Y7	Z7	X8	Y8	Z8	X9	Y9	Z9	X10	Y10	Z10	X11	Y11	Z11	X12	Y12	Z12	X13	Y13	Z13	X14	Y14	Z14	X15	Y15	Z15	X16	Y16	Z16	X17	Y17	Z17	X18	Y18	Z18	X19	Y19	Z19	

119	1.180																												-221.96712	1004.38477	1682.90271				-308.74731	837.32275	1490.26270													-404.14954	472.68170	1723.88342							
120	1.190																												-222.32338	1003.69324	1677.58484				-310.03381	834.68231	1484.69238													-405.22711	473.95654	1718.44751							
121	1.200																												-222.40526	1002.24597	1670.15894				-310.79202	832.60400	1478.69092													-407.06320	473.84937	1714.88794							
122	1.210																												-222.80862	1001.64349	1663.86987				-310.68021	831.48621	1472.66028													-407.98843	473.41113	1711.23132							
123	1.220																												-223.52007	1000.58582	1655.65405				-311.49323	829.50073	1466.72876													-408.94940	472.89005	1707.77795							
124	1.230																												-223.62086	999.54315	1649.25464				-312.29556	827.66705	1460.52026													-409.27866	472.06241	1705.67212							
125	1.240																												-224.12550	998.64471	1642.41223				-313.14133	826.45233	1455.28308													-410.28787	470.86700	1705.09412							
126	1.250																												-225.03568	997.62653	1634.55603				-314.14944	824.29077	1449.58716													-411.60916	472.26535	1697.21533							
127	1.260																												-225.69388	997.09576	1629.44434				-314.56400	823.71710	1443.49866													-411.43716	470.27997	1697.80713							
128	1.270																												-225.62604	995.19562	1622.01025				-316.01947	821.85901	1437.43762													-413.25476	469.98129	1693.80579							
129	1.280																												-226.31587	994.89917	1616.97473				-316.87073	819.96411	1432.28857													-413.61618	469.23053	1692.38989							
130	1.290																												-226.64154	993.57007	1608.53003				-317.80478	818.31531	1426.40076													-414.31448	468.88452	1688.28333							
131	1.300																												-227.05444	992.85077	1601.77686				-318.23767	816.92371	1421.22095													-414.61942	467.51953	1686.34692							
132	1.310																												-227.76407	991.81134	1595.86670				-318.43777	815.68365	1415.98877													-414.84476	466.80878	1685.92871							
133	1.320																												-228.08733	991.18243	1591.40466				-319.48050	814.23639	1410.83276													-416.67468	467.36899	1680.59680							
134	1.330																												-228.80067	989.69562	1585.62231				-320.21707	812.64545	1404.50806													-416.67703	465.71539	1679.65515							
135	1.340																												-229.39557	989.36688	1580.44482				-320.77228	811.99591	1400.53723													-416.80151	465.11081	1678.33313							
136	1.350																												-230.07973	988.27423	1574.22534				-321.46951	810.14331	1395.91565													-417.42358	465.33850	1676.05347							
137	1.360																												-230.73128	988.04407	1569.68665				-322.08127	809.50769	1391.06482													-418.13480	465.09201	1673.29370							
138	1.370																												-231.08995	987.64642	1565.59888				-323.13815	807.62781	1387.56494													-418.22003	464.51889	1673.01819							
139	1.380																												-232.00945	986.79858	1560.09277				-323.27545	806.97424	1383.14661													-417.78265	464.60828	1670.91064							
140	1.390																												-232.66444	986.85272	1556.00574				-323.52490	805.90039	1379.03687													-417.13354	462.68768	1669.44958							
141	1.400																												-233.06126	986.55353	1551.99365				-324.17917	805.58667	1374.87341													-417.93008	462.38672	1668.26965							
142	1.410																												-233.83914	986.31366	1546.61499				-325.05756	805.28815	1371.72302													-417.75137	462.01801	1668.30847							
143	1.420																												-234.40674	986.04315	1542.15393				-325.33691	804.00842	1368.20056													-417.13583	462.70782	1663.04834							
144	1.430																												-235.14719	986.14612	1538.15344				-326.50037	803.13684	1365.29395													-416.67789	460.42148	1664.12622							
145	1.440																												-234.85619	986.60687	1534.91516				-327.46451	803.00757	1362.36243													-416.67618	459.54889	1663.77161							
146	1.450																												-235.07198	986.01331	1530.92847				-328.39703	802.17572	1358.22888													-416.45847	459.33145	1661.52466							
147	1.460																												-235.75377	985.48944	1526.78735				-328.64813	801.11420	1356.32251													-415.92950	458.99542	1659.98950							
148	1.470																												-236.17578	985.67413	1522.75110				-329.20221	801.17645	1352.46313													-416.04141	458.26749	1660.43335							
149	1.480																												-236.39122	985.64764	1518.10645				-329.48859	800.26801	1349.33972													-415.57291	458.30884	1660.06250							
150	1.490																												-236.02209	985.84186	1514.73877				-330.78268	799.59833	1345.92761													-415.58899	458.26422	1655.73596							
151	1.500																												-236.64832	985.26306	1510.76697				-330.85117	799.89911	1343.05115													-414.78287	457.18954	1654.89136							
152	1.510																												-236.46675	985.37823	1508.03394				-331.26938	799.64459	1339.57190													-414.10657	456.22186	1655.71472							
153	1.520																												-236.56943	985.59705	1504.44751				-331.53305	798.60089	1337.44617													-413.48074	456.75989	1653.25073							
154	1.530																												-236.78571	985.11719	1501.75745				-331.62332	797.74268	1334.97266													-413.39514	456.10834	1651.01660							
155	1.540																												-236.81323	984.71216	1498.88110				-331.49686	798.20642	1331.46021													-412.87762	456.19778	1650.64624							
156	1.550																												-236.82976	984.72028	1495.56018				-331.21198	797.65582	1328.72375													-411.96613	455.26801	1652.26306							
157	1.560																												-236.55511	984.55542	1493.28687				-330.47906	797.08362	1326.65088													-411.26218	454.45428	1649.80371							
158	1.570																												-236.15184	984.43591	1490.25439				-330.99893	796.64014	1322.66748													-411.38190	454.66183	1646.36914							
159	1.580																												-236.63600	983.95050	1487.39844				-330.59393	796.49713	1320.70227													-411.30109	454.47641	1646.38733							
160	1.590																												-236.30952	983.85437	1484.66052				-330.15268	796.25330	1318.73181													-410.90646	454.32376	1645.62988							
161	1.600																												-236.30382	983.54620	1482.41833				-330.40366	795.57623	1315.91638													-410.83380	454.09189	1645.65063							
162	1.610																												-235.92319	983.07770	1481.16296				-329.75299	794.78503	1313.08301													-410.49710	453.95609	1644.29761							
163	1.620																												-236.15015	982.65198	1478.84290				-329.41458	794.52081	1311.43066													-410.37115	453.78174	1643.53015							
164	1.630																												-235.74083	981.78546	1476.53345				-328.62857	793.67389	1309.83740													-410.73892	452.96036	1642.16321							
165	1.640																												-235.26096	981.59100	1475.27063				-328.39822	792.86230	1309.37024													-411.20639	452.43451	1642.56653							
166	1.650																												-235.11284	981.14825	1474.17725				-328.21179	792.08362	1306.77722													-412.35199	453.08835	1640.56396							
167	1.660																												-235.08121	980.45422	1473.42566				-328.04770	791.97565	1305.37622													-412.87640	452.37476	1640.97571							
168	1.670																												-234.49669	980.19391	1471.90918				-327.84430	791.40570	1304.58313													-413.49255	451.33539	1639.81641							
169	1.680																												-234.70105	979.19849	1470.57935				-327.08374	790.73541	1302.89575													-413.70859	450.88361	1639.55566							
